<svg xmlns="http://www.w3.org/2000/svg" viewBox="0 0 374 565">
  <path d="M91.69,133.25Q101.56,89.61 120.78,64.94Q140.00,40.26 168.05,30.13Q196.10,20.00 232.47,20.00Q282.34,20.00 311.43,39.48Q340.52,58.96 340.52,100.00Q340.52,130.65 325.45,151.69Q310.39,172.73 284.16,184.94Q257.92,197.14 225.19,201.30V202.34Q270.91,208.57 295.06,231.43Q319.22,254.29 319.22,299.48Q319.22,320.78 312.21,343.12Q305.19,365.45 289.61,384.16Q274.03,402.86 249.35,414.29Q224.68,425.71 188.83,425.71Q158.70,425.71 141.56,417.40Q124.42,409.09 112.47,398.18L80.26,545.19H4.42ZM169.09,417.40Q188.83,417.40 203.12,404.68Q217.40,391.95 226.49,370.91Q235.58,349.87 239.74,324.16Q243.90,298.44 243.90,272.47Q243.90,251.69 238.70,234.29Q233.51,216.88 220.00,208.05Q211.69,213.77 203.38,217.40Q195.06,221.04 187.79,221.04Q178.96,221.04 173.25,216.36Q167.53,211.69 167.53,203.90Q167.53,195.06 174.03,190.13Q180.52,185.19 190.39,185.19Q197.66,185.19 205.71,187.53Q213.77,189.87 221.56,196.10Q232.99,190.39 243.90,178.44Q254.81,166.49 262.08,143.90Q269.35,121.30 269.35,84.42Q269.35,55.32 260.78,40.26Q252.21,25.19 230.91,25.19Q215.84,25.19 205.97,34.03Q196.10,42.86 188.57,63.12Q181.04,83.38 173.25,118.70L114.03,390.91Q123.38,401.82 138.18,409.61Q152.99,417.40 169.09,417.40ZZ" fill="white"/>
</svg>