<svg xmlns="http://www.w3.org/2000/svg" viewBox="0 0 492 444">
  <path d="M387.71,424.40Q344.40,424.40 317.61,416.33Q290.83,408.26 274.31,389.17Q257.80,370.09 245.32,338.53L202.75,229.91L182.20,252.66L145.50,420.00H35.41L102.94,96.33Q105.14,85.32 106.61,76.15Q108.07,66.97 108.07,61.83Q108.07,44.22 98.53,39.08Q88.99,33.94 69.91,33.94H53.76L55.23,26.61H232.11L205.69,149.17Q200.55,174.13 194.68,199.45Q188.81,224.77 185.14,239.45L213.76,204.22L255.60,151.38Q292.29,104.40 319.45,75.78Q346.61,47.16 369.72,33.58Q392.84,20.00 417.06,20.00Q444.95,20.00 458.53,35.41Q472.11,50.83 472.11,69.91Q472.11,96.33 457.43,111.38Q442.75,126.42 413.39,127.89Q413.39,103.67 402.02,87.52Q390.64,71.38 364.95,71.38Q345.14,71.38 324.95,84.95Q304.77,98.53 281.28,130.83L382.57,362.02Q395.05,389.91 404.59,403.49Q414.13,417.06 430.28,417.06H434.68L432.48,424.40ZZ" fill="white"/>
</svg>