<svg xmlns="http://www.w3.org/2000/svg" width="665" height="453" viewBox="0 0 665 453">
    <defs>
        <linearGradient id="c" x1="82" x2="365.9" y1="60" y2="322.9" gradientUnits="userSpaceOnUse">
            <stop offset="0%" stop-color="#fff0c8"/>
            <stop offset="4%" stop-color="#f0a858"/>
            <stop offset="22%" stop-color="#c86828"/>
            <stop offset="55%" stop-color="#7a3010"/>
            <stop offset="88%" stop-color="#3a1206"/>
            <stop offset="100%" stop-color="#180600"/>
        </linearGradient>
        <linearGradient id="e" x1="82" x2="82" y1="60" y2="178.3" gradientUnits="userSpaceOnUse">
            <stop offset="0%" stop-color="#fff" stop-opacity=".28"/>
            <stop offset="40%" stop-color="#ffd890" stop-opacity=".12"/>
            <stop offset="100%" stop-opacity="0"/>
        </linearGradient>
        <linearGradient id="g" x1="366.2" x2="584.7" y1="60" y2="401.4" gradientUnits="userSpaceOnUse">
            <stop offset="0%" stop-color="#fffae8"/>
            <stop offset="4%" stop-color="#f2dc90"/>
            <stop offset="22%" stop-color="#c8a040"/>
            <stop offset="55%" stop-color="#7a5c18"/>
            <stop offset="88%" stop-color="#3a2808"/>
            <stop offset="100%" stop-color="#160e02"/>
        </linearGradient>
        <linearGradient id="i" x1="366.2" x2="366.2" y1="60" y2="213.6" gradientUnits="userSpaceOnUse">
            <stop offset="0%" stop-color="#fff" stop-opacity=".25"/>
            <stop offset="40%" stop-color="#fff0c0" stop-opacity=".1"/>
            <stop offset="100%" stop-opacity="0"/>
        </linearGradient>
        <filter id="b" width="180%" height="180%" x="-30%" y="-30%">
            <feDropShadow dx="0" dy="6" flood-color="#000" flood-opacity=".9" stdDeviation="10"/>
        </filter>
        <filter id="d" width="170%" height="170%" x="-30%" y="-30%">
            <feGaussianBlur result="b" stdDeviation="14"/>
            <feFlood flood-color="#c05010" flood-opacity=".55" result="c"/>
            <feComposite in="c" in2="b" operator="in" result="g"/>
            <feMerge>
                <feMergeNode in="g"/>
                <feMergeNode in="SourceGraphic"/>
            </feMerge>
        </filter>
        <filter id="h" width="170%" height="170%" x="-30%" y="-30%">
            <feGaussianBlur result="b" stdDeviation="12"/>
            <feFlood flood-color="#b08020" flood-opacity=".5" result="c"/>
            <feComposite in="c" in2="b" operator="in" result="g"/>
            <feMerge>
                <feMergeNode in="g"/>
                <feMergeNode in="SourceGraphic"/>
            </feMerge>
        </filter>
        <clipPath id="f">
            <path d="M311.01 322.86q-28.15 0-45.56-5.25-17.41-5.24-28.15-17.65-10.73-12.4-18.84-32.91l-27.67-70.61-13.36 14.79L153.58 320H82.02l43.89-210.39q1.43-7.15 2.38-13.11.96-5.97.96-9.31 0-11.45-6.2-14.79-6.21-3.34-18.61-3.34h-10.5l.96-4.77h114.97l-17.17 79.67q-3.34 16.22-7.16 32.68t-6.2 26l18.6-22.9 27.2-34.35q23.85-30.53 41.5-49.13 17.65-18.61 32.68-27.43Q314.35 60 330.09 60q18.13 0 26.96 10.02 8.82 10.02 8.82 22.42 0 17.17-9.54 26.95t-28.62 10.74q0-15.74-7.4-26.24-7.39-10.5-24.09-10.5-12.88 0-26 8.83t-28.39 29.82l65.84 150.27q8.11 18.13 14.31 26.96 6.2 8.82 16.7 8.82h2.86l-1.43 4.77Z"/>
        </clipPath>
        <clipPath id="j">
            <path d="M422.95 133.61q6.41-28.36 18.91-44.4 12.49-16.04 30.72-22.63Q490.82 60 514.45 60q32.42 0 51.33 12.66T584.69 112q0 19.92-9.8 33.6-9.79 13.67-26.84 21.61-17.05 7.93-38.32 10.63v.68q29.71 4.05 45.41 18.91t15.7 44.23q0 13.85-4.56 28.37-4.55 14.52-14.68 26.67-10.13 12.16-26.17 19.59-16.04 7.42-39.34 7.42-19.59 0-30.73-5.4t-18.91-12.49l-20.93 95.56h-49.3Zm50.31 184.7q12.83 0 22.11-8.27 9.29-8.27 15.2-21.95 5.91-13.67 8.61-30.39 2.7-16.71 2.7-33.6 0-13.5-3.38-24.81-3.37-11.32-12.15-17.06-5.4 3.72-10.81 6.08-5.4 2.37-10.13 2.37-5.74 0-9.45-3.04-3.72-3.04-3.72-8.11 0-5.74 4.23-8.95 4.22-3.2 10.63-3.2 4.73 0 9.96 1.52 5.24 1.52 10.3 5.57 7.43-3.72 14.52-11.48 7.09-7.77 11.82-22.46t4.73-38.66q0-18.91-5.57-28.7-5.58-9.79-19.42-9.79-9.79 0-16.21 5.74-6.41 5.74-11.31 18.91-4.9 13.16-9.96 36.13l-38.49 176.93q6.07 7.09 15.7 12.16 9.62 5.06 20.09 5.06"/>
        </clipPath>
        <radialGradient id="a" cx="48%" cy="40%" r="62%">
            <stop offset="0%" stop-color="#211408"/>
            <stop offset="55%" stop-color="#0d0806"/>
            <stop offset="100%" stop-color="#040202"/>
        </radialGradient>
    </defs>
    <path fill="url(#a)" d="M0 0h665v9999H0z"/>
    <path fill="#100400" d="M311.01 322.86q-28.15 0-45.56-5.25-17.41-5.24-28.15-17.65-10.73-12.4-18.84-32.91l-27.67-70.61-13.36 14.79L153.58 320H82.02l43.89-210.39q1.43-7.15 2.38-13.11.96-5.97.96-9.31 0-11.45-6.2-14.79-6.21-3.34-18.61-3.34h-10.5l.96-4.77h114.97l-17.17 79.67q-3.34 16.22-7.16 32.68t-6.2 26l18.6-22.9 27.2-34.35q23.85-30.53 41.5-49.13 17.65-18.61 32.68-27.43Q314.35 60 330.09 60q18.13 0 26.96 10.02 8.82 10.02 8.82 22.42 0 17.17-9.54 26.95t-28.62 10.74q0-15.74-7.4-26.24-7.39-10.5-24.09-10.5-12.88 0-26 8.83t-28.39 29.82l65.84 150.27q8.11 18.13 14.31 26.96 6.2 8.82 16.7 8.82h2.86l-1.43 4.77Z" filter="url(#b)" opacity=".7" transform="translate(2 4)"/>
    <path fill="url(#c)" d="M311.01 322.86q-28.15 0-45.56-5.25-17.41-5.24-28.15-17.65-10.73-12.4-18.84-32.91l-27.67-70.61-13.36 14.79L153.58 320H82.02l43.89-210.39q1.43-7.15 2.38-13.11.96-5.97.96-9.31 0-11.45-6.2-14.79-6.21-3.34-18.61-3.34h-10.5l.96-4.77h114.97l-17.17 79.67q-3.34 16.22-7.16 32.68t-6.2 26l18.6-22.9 27.2-34.35q23.85-30.53 41.5-49.13 17.65-18.61 32.68-27.43Q314.35 60 330.09 60q18.13 0 26.96 10.02 8.82 10.02 8.82 22.42 0 17.17-9.54 26.95t-28.62 10.74q0-15.74-7.4-26.24-7.39-10.5-24.09-10.5-12.88 0-26 8.83t-28.39 29.82l65.84 150.27q8.11 18.13 14.31 26.96 6.2 8.82 16.7 8.82h2.86l-1.43 4.77Z" filter="url(#d)"/>
    <path fill="url(#e)" d="M82 60h283.9v144.6H82z" clip-path="url(#f)"/>
    <path fill="#100800" d="M422.95 133.61q6.41-28.36 18.91-44.4 12.49-16.04 30.72-22.63Q490.82 60 514.45 60q32.42 0 51.33 12.66T584.69 112q0 19.92-9.8 33.6-9.79 13.67-26.84 21.61-17.05 7.93-38.32 10.63v.68q29.71 4.05 45.41 18.91t15.7 44.23q0 13.85-4.56 28.37-4.55 14.52-14.68 26.67-10.13 12.16-26.17 19.59-16.04 7.42-39.34 7.42-19.59 0-30.73-5.4t-18.91-12.49l-20.93 95.56h-49.3Zm50.31 184.7q12.83 0 22.11-8.27 9.29-8.27 15.2-21.95 5.91-13.67 8.61-30.39 2.7-16.71 2.7-33.6 0-13.5-3.38-24.81-3.37-11.32-12.15-17.06-5.4 3.72-10.81 6.08-5.4 2.37-10.13 2.37-5.74 0-9.45-3.04-3.72-3.04-3.72-8.11 0-5.74 4.23-8.95 4.22-3.2 10.63-3.2 4.73 0 9.96 1.52 5.24 1.52 10.3 5.57 7.43-3.72 14.52-11.48 7.09-7.77 11.82-22.46t4.73-38.66q0-18.91-5.57-28.7-5.58-9.79-19.42-9.79-9.79 0-16.21 5.74-6.41 5.74-11.31 18.91-4.9 13.16-9.96 36.13l-38.49 176.93q6.07 7.09 15.7 12.16 9.62 5.06 20.09 5.06" filter="url(#b)" opacity=".7" transform="translate(2 4)"/>
    <path fill="url(#g)" d="M422.95 133.61q6.41-28.36 18.91-44.4 12.49-16.04 30.72-22.63Q490.82 60 514.45 60q32.42 0 51.33 12.66T584.69 112q0 19.92-9.8 33.6-9.79 13.67-26.84 21.61-17.05 7.93-38.32 10.63v.68q29.71 4.05 45.41 18.91t15.7 44.23q0 13.85-4.56 28.37-4.55 14.52-14.68 26.67-10.13 12.16-26.17 19.59-16.04 7.42-39.34 7.42-19.59 0-30.73-5.4t-18.91-12.49l-20.93 95.56h-49.3Zm50.31 184.7q12.83 0 22.11-8.27 9.29-8.27 15.2-21.95 5.91-13.67 8.61-30.39 2.7-16.71 2.7-33.6 0-13.5-3.38-24.81-3.37-11.32-12.15-17.06-5.4 3.72-10.81 6.08-5.4 2.37-10.13 2.37-5.74 0-9.45-3.04-3.72-3.04-3.72-8.11 0-5.74 4.23-8.95 4.22-3.2 10.63-3.2 4.73 0 9.96 1.52 5.24 1.52 10.3 5.57 7.43-3.72 14.52-11.48 7.09-7.77 11.82-22.46t4.73-38.66q0-18.91-5.57-28.7-5.58-9.79-19.42-9.79-9.79 0-16.21 5.74-6.41 5.74-11.31 18.91-4.9 13.16-9.96 36.13l-38.49 176.93q6.07 7.09 15.7 12.16 9.62 5.06 20.09 5.06" filter="url(#h)"/>
    <path fill="url(#i)" d="M366.2 60h218.5v187.8H366.2z" clip-path="url(#j)"/>
</svg>
