<svg xmlns="http://www.w3.org/2000/svg" width="528" height="409" viewBox="0 0 528 409">
    <defs>
        <filter id="c" width="150%" height="150%" x="-20%" y="-20%">
            <feDropShadow dx="2.5" dy="3.5" flood-color="#000" flood-opacity=".8" stdDeviation="5"/>
        </filter>
        <filter id="d" width="160%" height="160%" x="-25%" y="-25%">
            <feGaussianBlur result="b" stdDeviation="9"/>
            <feFlood flood-color="#c04810" flood-opacity=".5" result="c"/>
            <feComposite in="c" in2="b" operator="in" result="g"/>
            <feMerge>
                <feMergeNode in="g"/>
                <feMergeNode in="SourceGraphic"/>
            </feMerge>
        </filter>
        <filter id="f" width="160%" height="160%" x="-25%" y="-25%">
            <feGaussianBlur result="b" stdDeviation="8"/>
            <feFlood flood-color="#c09030" flood-opacity=".45" result="c"/>
            <feComposite in="c" in2="b" operator="in" result="g"/>
            <feMerge>
                <feMergeNode in="g"/>
                <feMergeNode in="SourceGraphic"/>
            </feMerge>
        </filter>
        <linearGradient id="b" x1="87.9" x2="331.4" y1="36" y2="284.7" gradientUnits="userSpaceOnUse">
            <stop offset="0%" stop-color="#ffe0a8"/>
            <stop offset="6%" stop-color="#f0a060"/>
            <stop offset="28%" stop-color="#c86020"/>
            <stop offset="62%" stop-color="#7a2e0c"/>
            <stop offset="100%" stop-color="#200800"/>
        </linearGradient>
        <linearGradient id="e" x1="300.9" x2="473.1" y1="36" y2="373" gradientUnits="userSpaceOnUse">
            <stop offset="0%" stop-color="#fff8e0"/>
            <stop offset="6%" stop-color="#f0d888"/>
            <stop offset="28%" stop-color="#c8a040"/>
            <stop offset="62%" stop-color="#7a5c18"/>
            <stop offset="100%" stop-color="#1e1206"/>
        </linearGradient>
        <radialGradient id="a" cx="50%" cy="42%" r="58%">
            <stop offset="0%" stop-color="#1c120a"/>
            <stop offset="100%" stop-color="#050302"/>
        </radialGradient>
    </defs>
    <path fill="url(#a)" d="M0 0h528v409H0z"/>
    <path fill="url(#b)" d="M103.01 284.7q-2.89 0-6.37-2.9t-6.09-6.96-2.61-7.54v-8.4q0-2.03 1.16-4.93t4.06-10.43q9.85-26.09 18.84-51.6t16.81-49.85q7.83-24.35 13.62-46.96 3.48-12.75 4.64-19.13t-4.64-6.38q-8.69 0-18.26 4.06-9.56 4.06-23.47 22.61-2.32 2.32-5.8 1.74t-3.48-4.64q0-3.48 1.45-8.98 1.45-5.51 4.06-11.02t4.93-8.4q9.85-12.18 22.02-20.58Q136.06 36 155.77 36q10.43 0 17.39 4.35t9.27 13.04q2.32 8.7-1.73 20.87l-24.93 73.62q-2.32 6.38.29 5.8t4.93-3.48q15.65-20.87 35.07-41.16t39.13-36.81 36.52-26.37Q288.52 36 298.96 36q19.13 0 25.79 11.3 6.67 11.31 6.09 20 0 8.7-6.38 8.7-2.89 0-7.53-.87t-9.86-1.45l-9.27-1.16q-4.64-.58-9.28-.58-12.17 0-26.38 7.54-14.2 7.53-28.11 18.84-13.91 11.3-24.93 22.32-11.01 11.01-16.81 17.97-2.32 2.32-2.61 3.77t.87 2.61q15.65 17.39 25.22 41.44 9.56 24.06 17.68 47.83 2.32 5.8 6.67 9.86 4.34 4.05 10.14 4.05 7.54 0 14.78-4.34 7.25-4.35 15.08-12.18 7.82-7.82 15.36-17.1 3.48-4.64 4.93-7.25 1.45-2.6 3.76-2.6 1.74 0 3.19 1.73 1.45 1.74 1.45 6.38 0 9.28-9.27 21.16-9.28 11.89-22.32 23.48-13.05 11.59-25.8 19.13t-19.71 7.54q-9.28 0-15.65-6.38-6.38-6.38-12.18-21.45l-22.02-59.71q-5.22-14.49-9.57-19.13t-12.46-4.64q-3.48 0-6.96 4.35t-5.8 8.98q-11.59 26.09-17.1 44.64t-11.88 35.94q-3.48 9.28-6.67 13.63t-8.41 4.35" filter="url(#c) url(#d)"/>
    <path fill="url(#e)" d="M318.24 373.02q-7.15 0-11.06-5.11-3.92-5.1-5.11-13.61t.17-19.07q1.36-10.55 4.77-21.44 8.17-27.92 17.19-56.34 9.02-28.43 19.23-60.26t21.11-69.62q8.85-30.63 19.06-50.89 10.21-20.25 22.81-30.47Q419.01 36 435.35 36q13.61 0 21.95 5.79 8.34 5.78 12.09 14.47 3.74 8.68 3.74 17.53 0 10.89-4.08 24-4.09 13.1-10.55 26.04-6.47 12.94-13.28 23.66t-12.26 17.19q14.98 7.49 21.28 20.6 6.3 13.1 6.3 26.38 0 10.55-4.94 22.64-4.93 12.08-14.3 22.64-9.36 10.55-22.46 17.19-13.11 6.64-29.11 6.64-7.49 0-14.98-4.6t-13.45-10.55q-5.95-5.96-9.36-9.71-2.04-2.38-3.74-4.25t-3.07-1.87q-2.04 0-4.59 3.4-2.56 3.41-3.58 6.47l-12.93 42.21q-1.36 4.09-1.88 8-.51 3.92-.51 7.66 0 11.24 3.41 19.92 3.4 8.68 6.47 14.12 1.36 2.39 2.55 4.77t1.19 3.4q0 2.39-3.4 5.45-3.41 3.07-7.32 5.45-3.92 2.38-6.3 2.38m70.81-114.72q8.17 0 18.21-3.92 10.04-3.91 19.41-11.23 9.36-7.32 15.31-17.19 5.96-9.87 5.96-21.45 0-11.91-6.3-20.94-6.29-9.02-13.1-11.4-4.77 4.43-10.39 10.38-5.61 5.96-11.06 10.56-5.45 4.59-9.87 4.59-3.07 0-6.3-2.38t-5.28-5.96q-2.04-3.57-2.04-7.32 0-7.49 8.85-12.08 8.85-4.6 18.05-6.98 12.59-9.87 24.17-23.83 11.57-13.96 19.23-28.6T461.56 84q0-8.85-5.79-16.17t-16-7.32q-8.51 0-18.89 4.6-10.38 4.59-20.6 17.53-10.21 12.93-18.38 38.47l-32 102.8q-.34 2.05-.85 4.09t-.51 4.09q0 4.42 4.93 10.55 4.94 6.13 13.96 10.89 9.02 4.77 21.62 4.77" filter="url(#c) url(#f)"/>
</svg>
